<svg xmlns="http://www.w3.org/2000/svg" xmlns:xlink="http://www.w3.org/1999/xlink" width="16" height="16" viewBox="0 0 16 16">
  <defs>
    <clipPath id="clip-path">
      <rect id="Rectangle_2350" data-name="Rectangle 2350" width="16" height="16" transform="translate(752 325)" fill="#fff" stroke="#707070" stroke-width="1"/>
    </clipPath>
  </defs>
  <g id="see" transform="translate(-752 -325)" clip-path="url(#clip-path)">
    <path id="ic_remove_red_eye_24px" d="M6.857,4.5A6.3,6.3,0,0,0,1,8.494a6.292,6.292,0,0,0,11.714,0A6.3,6.3,0,0,0,6.857,4.5Zm0,6.656A2.662,2.662,0,1,1,9.52,8.494,2.663,2.663,0,0,1,6.857,11.156Zm0-4.26a1.6,1.6,0,1,0,1.6,1.6A1.6,1.6,0,0,0,6.857,6.9Z" transform="translate(753 324.5)" fill="#8e8e8e"/>
  </g>
</svg>
