<svg xmlns="http://www.w3.org/2000/svg" xmlns:xlink="http://www.w3.org/1999/xlink" width="16" height="16" viewBox="0 0 16 16">
  <defs>
    <clipPath id="clip-path">
      <rect id="Rectangle_2353" data-name="Rectangle 2353" width="16" height="16" transform="translate(731 295)" fill="#fff"/>
    </clipPath>
  </defs>
  <g id="رؤية" transform="translate(-731 -295)" clip-path="url(#clip-path)">
    <path id="ic_remove_red_eye_24px" d="M8.042,4.5A7.571,7.571,0,0,0,1,9.3a7.565,7.565,0,0,0,14.084,0A7.571,7.571,0,0,0,8.042,4.5Zm0,8a3.2,3.2,0,1,1,3.2-3.2A3.2,3.2,0,0,1,8.042,12.5Zm0-5.121A1.921,1.921,0,1,0,9.963,9.3,1.918,1.918,0,0,0,8.042,7.381Z" transform="translate(731 293.5)" fill="#fff" opacity="0.8"/>
  </g>
</svg>
