<svg xmlns="http://www.w3.org/2000/svg" xmlns:xlink="http://www.w3.org/1999/xlink" width="24" height="24" viewBox="0 0 24 24">
  <defs>
    <clipPath id="clip-path">
      <rect id="Rectangle_2352" data-name="Rectangle 2352" width="24" height="24" transform="translate(1026.818 14)" fill="#fff" stroke="#707070" stroke-width="1"/>
    </clipPath>
  </defs>
  <g id="الإعدادات" transform="translate(-1026.818 -14)" clip-path="url(#clip-path)">
    <path id="ic_settings_24px" d="M19.96,13.319a8.034,8.034,0,0,0,.072-1.01,8.034,8.034,0,0,0-.072-1.01l2.175-1.7a.52.52,0,0,0,.124-.66L20.2,5.371a.518.518,0,0,0-.629-.227L17,6.175a7.532,7.532,0,0,0-1.742-1.01l-.392-2.732A.5.5,0,0,0,14.362,2H10.239a.5.5,0,0,0-.505.433L9.342,5.165A7.92,7.92,0,0,0,7.6,6.175L5.033,5.144a.5.5,0,0,0-.629.227L2.342,8.938a.508.508,0,0,0,.124.66l2.175,1.7a8.175,8.175,0,0,0-.072,1.01,8.175,8.175,0,0,0,.072,1.01l-2.175,1.7a.52.52,0,0,0-.124.66L4.4,19.246a.518.518,0,0,0,.629.227L7.6,18.442a7.532,7.532,0,0,0,1.742,1.01l.392,2.732a.5.5,0,0,0,.505.433h4.123a.5.5,0,0,0,.505-.433l.392-2.732A7.92,7.92,0,0,0,17,18.442l2.567,1.031a.5.5,0,0,0,.629-.227l2.062-3.567a.52.52,0,0,0-.124-.66Zm-7.659,2.6a3.608,3.608,0,1,1,3.608-3.608A3.612,3.612,0,0,1,12.3,15.917Z" transform="translate(1026.329 13.691)" fill="#053374" opacity="0.64"/>
  </g>
</svg>
