<svg xmlns="http://www.w3.org/2000/svg" width="16" height="16" viewBox="0 0 16 16">
  <g id="الأب" transform="translate(-2 -2)">
    <circle id="Ellipse_27" data-name="Ellipse 27" cx="1.5" cy="1.5" r="1.5" transform="translate(11.176 6.588)" fill="#cbe7f9"/>
    <circle id="Ellipse_28" data-name="Ellipse 28" cx="1.5" cy="1.5" r="1.5" transform="translate(5.824 6.588)" fill="#cbe7f9"/>
    <path id="Path_106" data-name="Path 106" d="M9.992,2A8,8,0,1,0,18,10,8,8,0,0,0,9.992,2ZM10,16.4A6.4,6.4,0,1,1,16.4,10,6.4,6.4,0,0,1,10,16.4Zm0-3.2a3.2,3.2,0,0,1-2.76-1.6H5.9a4.4,4.4,0,0,0,8.192,0H12.76A3.2,3.2,0,0,1,10,13.2Z" fill="#cbe7f9"/>
  </g>
</svg>
