<svg xmlns="http://www.w3.org/2000/svg" xmlns:xlink="http://www.w3.org/1999/xlink" width="16" height="16" viewBox="0 0 16 16">
  <defs>
    <clipPath id="clip-path">
      <rect id="Rectangle_2325" data-name="Rectangle 2325" width="16" height="16" transform="translate(175.032 0.431)" fill="#fff"/>
    </clipPath>
  </defs>
  <g id="المجموعة" transform="translate(-175.032 -0.431)" clip-path="url(#clip-path)">
    <path id="ic_supervisor_account_24px" d="M11.4,9.581a1.636,1.636,0,1,0-1.62-1.636A1.623,1.623,0,0,0,11.4,9.581Zm-4.86-.654A1.963,1.963,0,1,0,4.592,6.963,1.946,1.946,0,0,0,6.536,8.926Zm4.86,1.963c-1.186,0-3.564.6-3.564,1.8v1.472h7.129V12.689C14.961,11.491,12.583,10.889,11.4,10.889Zm-4.86-.654C5.026,10.235,2,11,2,12.525v1.636H6.536V12.689a2.582,2.582,0,0,1,1.536-2.271A7.886,7.886,0,0,0,6.536,10.235Z" transform="translate(174.552 -1.15)" fill="none" stroke="#fff" stroke-width="1"/>
  </g>
</svg>
