<svg xmlns="http://www.w3.org/2000/svg" xmlns:xlink="http://www.w3.org/1999/xlink" width="16" height="16" viewBox="0 0 16 16">
  <defs>
    <clipPath id="clip-path">
      <rect id="Rectangle_2326" data-name="Rectangle 2326" width="16" height="16" transform="translate(311.032 0.431)" fill="#fff"/>
    </clipPath>
  </defs>
  <g id="الدور" transform="translate(-311.032 -0.431)" clip-path="url(#clip-path)">
    <path id="ic_settings_24px" d="M13.914,9.45a4.678,4.678,0,0,0,0-1.33L15.346,7a.342.342,0,0,0,.081-.434L14.07,4.219a.341.341,0,0,0-.414-.149l-1.69.679a4.957,4.957,0,0,0-1.147-.665l-.258-1.8A.331.331,0,0,0,10.229,2H7.515a.331.331,0,0,0-.332.285l-.258,1.8a5.213,5.213,0,0,0-1.147.665L4.089,4.07a.331.331,0,0,0-.414.149L2.318,6.567A.335.335,0,0,0,2.4,7L3.831,8.12a5.381,5.381,0,0,0-.047.665,5.381,5.381,0,0,0,.047.665L2.4,10.57A.342.342,0,0,0,2.318,11l1.357,2.348a.341.341,0,0,0,.414.149l1.69-.679a4.957,4.957,0,0,0,1.147.665l.258,1.8a.331.331,0,0,0,.332.285h2.714a.331.331,0,0,0,.332-.285l.258-1.8a5.213,5.213,0,0,0,1.147-.665l1.69.679a.331.331,0,0,0,.414-.149L15.427,11a.342.342,0,0,0-.081-.434ZM8.872,11.16a2.375,2.375,0,1,1,2.375-2.375A2.377,2.377,0,0,1,8.872,11.16Z" transform="translate(310.262 -0.069)" fill="none" stroke="#fff" stroke-width="1.2"/>
  </g>
</svg>
